# xmcd
#
# Track frame offsets:
#	150
#	15068
#	31360
#	46323
#	64706
#	83333
#	99835
#	117719
#	134827
#	156234
#	172886
#	191489
#	207153
#	225228
#	241791
#	259119
#	276896
#	305653
#
# Disc length: 4090 seconds
#
# Revision: 3
# Processed by: cddbd v1.5.2PL0 Copyright (c) Steve Scherf et al.
# Submitted via: audiograbber 1.83.01
#
DISCID=e20ff812
DTITLE=Various Artist - CBESP484-01
DYEAR=2004
DGENRE=Country
TTITLE0=Jimmy Buffet - Hey Good Lookin'
TTITLE1=Big and Rich - Save A Horse (Ride A Cowboy)
TTITLE2=Alan Jackson - Too Much Of A Good Thing
TTITLE3=Joe Nichols - If Nobody Believed In You
TTITLE4=George Strait - I Hate Everything
TTITLE5=Phil Vassar - In A Real Love
TTITLE6=Keith Urban - Days Go By
TTITLE7=Kenny Chesney - When The Sun Goes Down
TTITLE8=Rascal Flatts - Mayberry
TTITLE9=Gary Allan - Nothing On But The Radio
TTITLE10=Andy Griggs - She Thinks She Needs Me
TTITLE11=Billy Currington - I Got A Feeling
TTITLE12=Los Lonely Boys - Heaven
TTITLE13=Lonestar - Mr. Mom
TTITLE14=Montgomery Gentry - You Do Your Thing
TTITLE15=Dierks Bently - How Am I Doing
TTITLE16=Toby Keith - Stays In Mexico
TTITLE17=Data - data
EXTD=MediaType: Karaoke CD+G Producer: chartbuster
EXTT0=
EXTT1=
EXTT2=
EXTT3=
EXTT4=
EXTT5=
EXTT6=
EXTT7=
EXTT8=
EXTT9=
EXTT10=
EXTT11=
EXTT12=
EXTT13=
EXTT14=
EXTT15=
EXTT16=
EXTT17=
PLAYORDER=
